<svg xmlns="http://www.w3.org/2000/svg" width="128" height="128" viewBox="0 0 16 16" shape-rendering="crispEdges">
  <title>Serpent — corps</title>
  <desc>Sprite vectoriel 16 × 16, fond transparent. Recoloriser uniquement le groupe peau ; le groupe yeux conserve ses couleurs.</desc>
  <g id="peau">
    <path id="ombre" fill="#333333" d="M5 0h6v1H5z M3 1h2v1H3z M11 1h2v1H11z M2 2h1v1H2z M5 2h1v1H5z M10 2h1v1H10z M13 2h1v1H13z M1 3h1v1H1z M6 3h4v1H6z M14 3h1v1H14z M1 4h1v1H1z M14 4h1v1H14z M0 5h1v1H0z M2 5h1v1H2z M6 5h4v1H6z M13 5h1v1H13z M15 5h1v1H15z M0 6h1v1H0z M3 6h1v1H3z M5 6h1v1H5z M10 6h1v1H10z M12 6h1v1H12z M15 6h1v1H15z M0 7h1v1H0z M3 7h1v1H3z M5 7h1v1H5z M10 7h1v1H10z M12 7h1v1H12z M15 7h1v1H15z M0 8h1v1H0z M3 8h1v1H3z M5 8h1v1H5z M10 8h1v1H10z M12 8h1v1H12z M15 8h1v1H15z M0 9h1v1H0z M3 9h1v1H3z M5 9h1v1H5z M10 9h1v1H10z M12 9h1v1H12z M15 9h1v1H15z M0 10h1v1H0z M2 10h1v1H2z M6 10h4v1H6z M13 10h1v1H13z M15 10h1v1H15z M1 11h1v1H1z M14 11h1v1H14z M1 12h1v1H1z M6 12h4v1H6z M14 12h1v1H14z M2 13h1v1H2z M5 13h1v1H5z M10 13h1v1H10z M13 13h1v1H13z M3 14h2v1H3z M11 14h2v1H11z M5 15h6v1H5z"/>
    <path id="base" fill="#999999" d="M6 1h4v1H6z M3 2h2v1H3z M11 2h2v1H11z M2 3h4v1H2z M10 3h4v1H10z M2 4h4v1H2z M10 4h4v1H10z M3 5h2v1H3z M11 5h2v1H11z M1 6h1v1H1z M14 6h1v1H14z M1 7h1v1H1z M7 7h2v1H7z M14 7h1v1H14z M1 8h1v1H1z M7 8h2v1H7z M14 8h1v1H14z M1 9h1v1H1z M14 9h1v1H14z M3 10h2v1H3z M11 10h2v1H11z M2 11h4v1H2z M10 11h4v1H10z M2 12h4v1H2z M10 12h4v1H10z M3 13h2v1H3z M11 13h2v1H11z M6 14h4v1H6z"/>
    <path id="lumiere" fill="#eeeeee" d="M5 1h1v1H5z M10 1h1v1H10z M6 2h4v1H6z M6 4h4v1H6z M1 5h1v1H1z M5 5h1v1H5z M10 5h1v1H10z M14 5h1v1H14z M2 6h1v1H2z M4 6h1v1H4z M6 6h4v1H6z M11 6h1v1H11z M13 6h1v1H13z M2 7h1v1H2z M4 7h1v1H4z M6 7h1v1H6z M9 7h1v1H9z M11 7h1v1H11z M13 7h1v1H13z M2 8h1v1H2z M4 8h1v1H4z M6 8h1v1H6z M9 8h1v1H9z M11 8h1v1H11z M13 8h1v1H13z M2 9h1v1H2z M4 9h1v1H4z M6 9h4v1H6z M11 9h1v1H11z M13 9h1v1H13z M1 10h1v1H1z M5 10h1v1H5z M10 10h1v1H10z M14 10h1v1H14z M6 11h4v1H6z M6 13h4v1H6z M5 14h1v1H5z M10 14h1v1H10z"/>
  </g>
</svg>
